<svg xmlns="http://www.w3.org/2000/svg" width="20.033" height="20.032" viewBox="0 0 20.033 20.032">
  <g id="Group_107" data-name="Group 107" transform="translate(96.069 -178.621)">
    <path id="Path_590" data-name="Path 590" d="M-96.069,279.421c.534,0,1.068.012,1.6.013q2.219,0,4.438,0h.239v3.778h-.216c-1.772,0-3.545,0-5.317,0a.693.693,0,0,1-.745-.47Z" transform="translate(0 -95.87)" fill="#5892f6"/>
    <path id="Path_591" data-name="Path 591" d="M-85.758,178.621l-.624,3.759h-6.209l.294-.884c.254-.765.513-1.529.76-2.3a.812.812,0,0,1,.5-.579Z" transform="translate(-3.308)" fill="#5892f6"/>
    <path id="Path_592" data-name="Path 592" d="M175.613,178.621a.79.79,0,0,1,.49.561c.326,1,.664,2,1,3,.02.06.034.122.056.2h-6.2l-.625-3.759Z" transform="translate(-253.371)" fill="#5892f6"/>
    <path id="Path_593" data-name="Path 593" d="M63.065,178.621c.084.54.165,1.08.253,1.62.107.656.22,1.31.329,1.965.008.051.009.1.014.171H58.783c.051-.319.1-.631.151-.942q.222-1.33.445-2.659a1.261,1.261,0,0,0,.007-.155Z" transform="translate(-147.279)" fill="#5892f6"/>
    <path id="Path_594" data-name="Path 594" d="M-70.416,381.051h17.523c0,.065,0,.127,0,.189q0,4.606,0,9.213c0,.523-.212.731-.739.731H-69.671c-.537,0-.745-.206-.745-.744q0-4.6,0-9.193Z" transform="translate(-24.398 -192.53)" fill="#5892f6"/>
    <path id="Path_595" data-name="Path 595" d="M191.446,279.986v2.54c0,.2,0,.391,0,.587a.594.594,0,0,1-.638.635c-.528.005-1.056,0-1.584,0h-4.055v-3.763Z" transform="translate(-267.482 -96.408)" fill="#5892f6"/>
    <path id="Path_596" data-name="Path 596" d="M61.893,283.674H56.815v-3.756h5.078Z" transform="translate(-145.407 -96.343)" fill="#5892f6"/>
  </g>
</svg>
