<svg xmlns="http://www.w3.org/2000/svg" width="20.486" height="23.429" viewBox="0 0 20.486 23.429">
  <g id="user_2_" data-name="user (2)" transform="translate(-24.165)">
    <g id="Group_104" data-name="Group 104" transform="translate(29.105)">
      <g id="Group_103" data-name="Group 103">
        <path id="Path_597" data-name="Path 597" d="M116.1,0a5.3,5.3,0,1,0,5.3,5.3A5.319,5.319,0,0,0,116.1,0Z" transform="translate(-110.791)" fill="#e5e5e5"/>
      </g>
    </g>
    <g id="Group_106" data-name="Group 106" transform="translate(24.165 13.987)">
      <g id="Group_105" data-name="Group 105" transform="translate(0)">
        <path id="Path_598" data-name="Path 598" d="M44.607,251.7a4.811,4.811,0,0,0-.6-.973,7.534,7.534,0,0,0-5.112-2.872,1.2,1.2,0,0,0-.753.162,6.957,6.957,0,0,1-7.473,0,1.064,1.064,0,0,0-.753-.162,7.478,7.478,0,0,0-5.112,2.872,5.545,5.545,0,0,0-.6.973.446.446,0,0,0,.026.44,10.714,10.714,0,0,0,1.894,2.131c.363.324.778.625,1.194.927a12.99,12.99,0,0,0,14.116,0,12.357,12.357,0,0,0,2.387-2.131,8.133,8.133,0,0,0,.7-.927A.363.363,0,0,0,44.607,251.7Z" transform="translate(-24.165 -247.841)" fill="#e5e5e5"/>
      </g>
    </g>
  </g>
</svg>
